<svg xmlns="http://www.w3.org/2000/svg" xmlns:xlink="http://www.w3.org/1999/xlink" width="180" zoomAndPan="magnify" viewBox="0 0 135 44.999999" height="60" preserveAspectRatio="xMidYMid meet" version="1.0"><defs><g/><clipPath id="6b748fecd4"><rect x="0" width="130" y="0" height="45"/></clipPath></defs><g transform="matrix(1, 0, 0, 1, 2, 0)"><g clip-path="url(#6b748fecd4)"><g fill="#0f3751" fill-opacity="1"><g transform="translate(1.172415, 36.211285)"><g><path d="M 11.265625 0.03125 C 9.585938 0.03125 8.113281 -0.207031 6.84375 -0.6875 C 5.820312 -1.09375 4.773438 -1.769531 3.703125 -2.71875 C 2.484375 -3.832031 1.707031 -5.21875 1.375 -6.875 C 1.25 -7.40625 1.1875 -7.941406 1.1875 -8.484375 C 1.15625 -8.660156 1.15625 -8.835938 1.1875 -9.015625 L 1.1875 -9.28125 L 6.421875 -9.203125 L 6.421875 -9.25 C 6.421875 -8.300781 6.625 -7.523438 7.03125 -6.921875 C 7.789062 -5.773438 9.203125 -5.203125 11.265625 -5.203125 C 14.578125 -5.203125 16.234375 -5.976562 16.234375 -7.53125 C 16.234375 -9.03125 14.523438 -9.972656 11.109375 -10.359375 C 9.148438 -10.585938 7.472656 -10.992188 6.078125 -11.578125 C 4.773438 -12.109375 3.71875 -12.820312 2.90625 -13.71875 C 1.757812 -14.988281 1.1875 -16.460938 1.1875 -18.140625 C 1.1875 -19.191406 1.375 -20.175781 1.75 -21.09375 C 2.03125 -21.78125 2.414062 -22.398438 2.90625 -22.953125 C 4.6875 -24.972656 7.515625 -25.984375 11.390625 -25.984375 C 13.703125 -25.984375 15.660156 -25.523438 17.265625 -24.609375 C 18.492188 -23.921875 19.488281 -23.003906 20.25 -21.859375 C 20.8125 -20.984375 21.207031 -19.988281 21.4375 -18.875 C 21.507812 -18.488281 21.554688 -18.101562 21.578125 -17.71875 C 21.609375 -17.59375 21.625 -17.46875 21.625 -17.34375 L 21.625 -17.109375 L 16.390625 -17.109375 L 16.390625 -17.078125 C 16.410156 -17.835938 16.21875 -18.488281 15.8125 -19.03125 C 15 -20.175781 13.523438 -20.75 11.390625 -20.75 C 10.085938 -20.75 9.015625 -20.582031 8.171875 -20.25 C 7.128906 -19.84375 6.609375 -19.253906 6.609375 -18.484375 C 6.609375 -16.910156 8.300781 -15.929688 11.6875 -15.546875 C 15.507812 -15.117188 18.257812 -13.9375 19.9375 -12 C 21.0625 -10.675781 21.625 -9.1875 21.625 -7.53125 L 21.625 -7.1875 C 21.625 -7.03125 21.609375 -6.875 21.578125 -6.71875 C 21.554688 -6.3125 21.507812 -5.929688 21.4375 -5.578125 C 21.175781 -4.554688 20.691406 -3.648438 19.984375 -2.859375 C 19.140625 -1.921875 18.003906 -1.195312 16.578125 -0.6875 C 15.148438 -0.207031 13.378906 0.03125 11.265625 0.03125 Z M 11.265625 0.03125 "/></g></g></g><g fill="#0f3751" fill-opacity="1"><g transform="translate(23.944969, 36.211285)"><g><path d="M 0.578125 -24.828125 L 6.53125 -24.828125 L 6.53125 0 L 0.578125 0 Z M 0.578125 -24.828125 "/></g></g></g><g fill="#0f3751" fill-opacity="1"><g transform="translate(31.051847, 36.211285)"><g><path d="M 7.109375 -5.34375 L 19.0625 -5.34375 L 19.0625 0 L 1.140625 0 L 1.140625 -24.828125 L 7.109375 -24.828125 Z M 7.109375 -5.34375 "/></g></g></g><g fill="#0f3751" fill-opacity="1"><g transform="translate(50.576638, 36.211285)"><g><path d="M 27.578125 -24.828125 L 27.578125 0 L 21.625 0 L 21.625 -13.90625 L 14.25 -9.203125 L 7.109375 -13.875 L 7.109375 0 L 1.140625 0 L 1.140625 -24.828125 L 14.328125 -16.3125 Z M 27.578125 -24.828125 "/></g></g></g><g fill="#0f3751" fill-opacity="1"><g transform="translate(79.309801, 36.211285)"><g><path d="M 20.203125 0 L 18.40625 -3.46875 L 9.046875 -3.46875 L 7.265625 0 L 0.375 0 L 13.75 -24.828125 L 27.09375 0 Z M 16 -8.140625 L 13.75 -12.5 L 11.46875 -8.140625 Z M 16 -8.140625 "/></g></g></g><g fill="#0f3751" fill-opacity="1"><g transform="translate(106.782068, 36.211285)"><g><path d="M 21.890625 -16.34375 C 21.890625 -14.738281 21.484375 -13.25 20.671875 -11.875 C 19.671875 -10.25 18.269531 -9.117188 16.46875 -8.484375 L 21.8125 0 L 15.125 0 L 9.9375 -7.90625 L 7.109375 -7.90625 L 7.109375 0 L 1.140625 0 L 1.140625 -24.828125 L 13.03125 -24.828125 C 15.851562 -24.828125 18.09375 -23.898438 19.75 -22.046875 C 21.175781 -20.410156 21.890625 -18.507812 21.890625 -16.34375 Z M 7.109375 -19.484375 L 7.109375 -13.25 L 12.984375 -13.25 C 13.804688 -13.25 14.457031 -13.363281 14.9375 -13.59375 C 15.34375 -13.820312 15.632812 -14.039062 15.8125 -14.25 C 16.070312 -14.550781 16.265625 -14.90625 16.390625 -15.3125 C 16.492188 -15.675781 16.546875 -16.019531 16.546875 -16.34375 C 16.546875 -16.707031 16.492188 -17.066406 16.390625 -17.421875 C 16.234375 -17.828125 16.015625 -18.179688 15.734375 -18.484375 C 15.179688 -19.148438 14.28125 -19.484375 13.03125 -19.484375 Z M 7.109375 -19.484375 "/></g></g></g></g></g></svg>